<svg width="191" height="43" viewBox="0 0 191 43" fill="none" xmlns="http://www.w3.org/2000/svg">
<path d="M62.504 39.634C39.9171 41.4345 24.5018 39.2934 15.4821 37.1514C17.525 37.1542 19.5696 37.0981 21.5491 36.9953C23.4322 36.898 25.3061 36.7603 27.1708 36.5941C28.7316 36.4545 31.6154 36.1662 33.3544 35.9404C29.8673 35.3748 26.4216 34.6605 23.0401 33.8819C20.0388 33.1906 17.0714 32.4267 14.2087 31.5343C11.9143 30.8191 9.8329 29.8771 7.71662 28.9865C5.94647 28.2401 3.4152 26.9501 1.45684 28.0739C-0.06358 28.947 -0.0801063 30.7401 0.0502676 31.93C0.418436 35.2913 5.43783 37.2781 8.08387 38.4845C11.3111 39.9563 14.7412 40.9515 18.2145 41.6383C25.3575 43.0504 32.7245 43.2147 39.9759 42.8034C45.7665 42.4655 51.5149 41.7723 57.2201 40.722C58.9398 40.408 60.7219 40.026 62.504 39.634Z" fill="white"/>
<path d="M188.104 22.6853C187.028 22.1895 185.927 21.7231 184.799 21.2852C183.467 20.7673 182.108 20.2872 180.721 19.8455C177.293 18.764 173.81 17.912 170.272 17.2886C166.668 16.6596 163.042 16.2134 159.394 15.9509C158.479 15.8875 157.563 15.8159 156.648 15.7746L155.272 15.7011L153.897 15.6488C153.438 15.6323 152.979 15.6139 152.52 15.6029L151.143 15.5772C150.225 15.5542 149.309 15.5561 148.392 15.5506C147.933 15.546 147.475 15.5478 147.016 15.5524L145.642 15.5616C144.726 15.5708 143.811 15.5919 142.896 15.6084L140.154 15.6947C139.243 15.7314 138.329 15.7636 137.418 15.8058C135.597 15.8893 133.779 15.983 131.964 16.0886C131.057 16.1427 130.15 16.1997 129.245 16.2603L126.528 16.4411C119.293 16.9305 112.084 17.5355 104.897 18.1433C97.7112 18.7502 90.5453 19.369 83.3885 19.8823C79.8105 20.1467 76.2353 20.3781 72.662 20.5745C69.0886 20.7719 65.5181 20.9381 61.9511 21.0428C58.3833 21.1474 54.8191 21.2237 51.2623 21.208C50.817 21.208 50.3717 21.2126 49.9283 21.208L48.5952 21.1934C47.7073 21.1823 46.8177 21.1814 45.9317 21.1548L43.27 21.0905L40.613 20.9932C37.8145 20.8748 35.0234 20.7104 32.2397 20.4993C33.1633 20.1375 34.0741 19.7638 34.972 19.381C39.671 17.3758 44.0486 15.1521 48.4005 13.0413C52.7524 10.9305 57.086 8.92352 61.6224 7.35352C62.1908 7.16255 62.7563 6.96332 63.3302 6.78704C63.6175 6.69798 63.9022 6.60341 64.1904 6.51711L65.0608 6.26921C65.642 6.10395 66.2186 5.92859 66.8126 5.78903L67.6977 5.56777C67.9933 5.49432 68.2853 5.41352 68.5864 5.35201L70.3805 4.95813L72.1974 4.61751C72.3498 4.58996 72.5004 4.55783 72.6528 4.53396L73.1128 4.46326L74.0318 4.32003C74.3385 4.27504 74.6433 4.21812 74.9527 4.18231L75.88 4.06663L76.8083 3.94911C77.1177 3.91238 77.4307 3.88759 77.7411 3.85546L78.6766 3.76457L79.144 3.71958L79.614 3.68561C80.2411 3.64154 80.8682 3.59012 81.4962 3.55156L83.3875 3.46434C85.9133 3.37712 88.4547 3.40191 90.9979 3.50749C91.6332 3.53962 92.2704 3.56074 92.9067 3.60206L94.8145 3.73243C96.0843 3.84169 97.3568 3.95095 98.6248 4.1006C101.161 4.38614 103.695 4.73411 106.208 5.16746C111.239 6.03326 116.22 7.14511 121.12 8.4617C126.031 9.76268 130.853 11.2758 135.64 12.8788C133.404 11.8523 131.13 10.8709 128.817 9.93529C126.509 8.99421 124.155 8.11373 121.77 7.27548C116.924 5.57052 112.001 4.1309 107.001 2.95753C101.848 1.7502 96.6389 0.899094 91.3697 0.40606C88.7035 0.164593 86.0152 0.0305463 83.3058 0.00392074C80.6001 -0.0227051 77.8825 0.086552 75.1777 0.323429L74.1622 0.413405C73.8234 0.440031 73.4874 0.488691 73.1504 0.524498L71.6328 0.703533C71.4638 0.723732 71.2977 0.751275 71.1296 0.775147L69.1171 1.07537L67.1183 1.43528C66.7851 1.49037 66.4564 1.56657 66.1259 1.63543L65.137 1.84844C64.4741 1.98248 63.826 2.15325 63.1741 2.31576L62.1963 2.55998C61.8713 2.64445 61.5518 2.7381 61.2295 2.82716C60.5822 3.00252 59.9505 3.199 59.3161 3.39089C58.9966 3.48546 58.6872 3.59196 58.3732 3.69295C58.0592 3.79395 57.7452 3.89494 57.4349 4.00052C56.8197 4.21628 56.1936 4.42194 55.5876 4.64872L54.6731 4.98292L53.7688 5.3263C53.1628 5.55308 52.5743 5.79454 51.9785 6.03142C49.6097 6.98903 47.3107 8.0008 45.0512 9.02635L38.358 12.0938C36.1463 13.101 33.9364 14.0696 31.7136 14.9767C29.4899 15.8811 27.2423 16.7 24.9663 17.4171C22.6902 18.1268 20.3811 18.7025 18.039 19.145L3.03223 21.9692L18.2134 24.2498C21.8501 24.7961 25.5061 25.2432 29.1814 25.5903C32.8539 25.9373 36.5383 26.1641 40.2209 26.3275C47.5898 26.6305 54.9569 26.5919 62.2752 26.3046C76.9221 25.7372 91.3633 24.2415 105.681 22.6486C107.928 22.3979 110.172 22.1464 112.413 21.893C109.294 22.5412 106.187 23.216 103.092 23.9184L92.4054 26.378C88.8513 27.2052 85.2945 28.0031 81.7358 28.7707L79.065 29.3408C78.1744 29.529 77.2838 29.7127 76.3914 29.8917L73.7151 30.427L72.3765 30.6923L71.0525 30.9402C67.5141 31.5691 63.9297 32.0217 60.3279 32.3256C53.0802 32.9068 45.8288 32.949 38.5747 32.4514C31.2802 31.9584 24.0491 30.9907 16.8822 29.5456C23.8553 31.7564 31.0755 33.2777 38.3847 34.2528C45.737 35.2177 53.1188 35.5418 60.528 35.2251C64.2446 35.0598 67.9437 34.7027 71.6236 34.1536L73.0035 33.9351L74.3633 33.7047C75.2713 33.5541 76.1757 33.3925 77.08 33.2263C77.9853 33.0638 78.8887 32.8967 79.7912 32.7232L82.4979 32.2026C86.1034 31.4975 89.6896 30.7198 93.2693 29.9394L103.972 27.5284C107.531 26.7177 111.086 25.9208 114.648 25.178C118.205 24.4187 121.771 23.7292 125.346 23.1095C128.92 22.4815 132.508 21.9536 136.107 21.5018L138.809 21.1878L141.516 20.9142L144.227 20.6746L146.942 20.4763L149.662 20.3165L152.385 20.1889C154.209 20.1173 156.032 20.0613 157.853 20.0117C161.495 19.9227 165.135 19.908 168.768 20.0402C174.153 20.222 179.54 20.7664 184.823 21.8994C186.682 22.4494 188.509 23.0691 190.302 23.7577C189.584 23.3858 188.851 23.0287 188.104 22.6853Z" fill="#F9449B"/>
<path d="M143.949 41.2369C144.409 38.9361 145.266 36.7941 146.522 34.8119C147.796 32.7902 149.371 31.0393 151.245 29.5593C153.144 28.06 155.238 26.9197 157.527 26.1383C158.096 25.9455 158.68 25.7968 159.259 25.6288C159.845 25.4975 160.437 25.3845 161.027 25.2634C161.624 25.1853 162.223 25.122 162.821 25.0522L163.723 25.0026C164.024 24.9898 164.325 24.9925 164.626 24.9879C165.834 24.9999 167.033 25.1073 168.224 25.3111C169.412 25.5213 170.576 25.828 171.713 26.2301C173.993 27.0399 176.072 28.2069 177.951 29.7328C179.808 31.2367 181.36 33.0087 182.605 35.0497C183.833 37.0503 184.658 39.206 185.079 41.516C184.607 40.485 184.074 39.486 183.478 38.5211C182.891 37.5745 182.242 36.672 181.53 35.8163C180.127 34.1233 178.514 32.6616 176.692 31.4313C176.25 31.1311 175.796 30.8474 175.332 30.5811C174.868 30.314 174.395 30.0642 173.913 29.8329C173.431 29.6006 172.941 29.3867 172.442 29.1902C171.944 28.9946 171.44 28.8174 170.929 28.6586C170.419 28.4997 169.902 28.3602 169.381 28.239C168.86 28.1187 168.334 28.0168 167.806 27.9351C167.277 27.8534 166.746 27.791 166.213 27.7478C165.679 27.7047 165.146 27.6817 164.61 27.678C164.075 27.6744 163.541 27.6909 163.007 27.7258C162.473 27.7616 161.941 27.8176 161.412 27.8919C160.882 27.9672 160.356 28.0618 159.833 28.1756C159.31 28.2895 158.792 28.4217 158.279 28.5741C157.766 28.7256 157.259 28.8964 156.759 29.0855C156.258 29.2746 155.765 29.4821 155.28 29.708C154.795 29.9329 154.318 30.1762 153.851 30.437C153.384 30.6977 152.926 30.975 152.479 31.2697C150.643 32.4762 149.012 33.9158 147.585 35.5886C146.123 37.3101 144.91 39.1932 143.949 41.2369Z" fill="white"/>
</svg>
